<mxfile host="Electron" modified="2024-05-10T10:16:06.620Z" agent="Mozilla/5.0 (Macintosh; Intel Mac OS X 10_15_7) AppleWebKit/537.36 (KHTML, like Gecko) draw.io/24.1.0 Chrome/120.0.6099.109 Electron/28.1.0 Safari/537.36" etag="gI4G1qsdzHyP2UmhChFN" version="24.1.0" type="device">
  <diagram name="Страница — 1" id="_hXdufuhg3PNtRuWlFFE">
    <mxGraphModel dx="1403" dy="352" grid="1" gridSize="10" guides="1" tooltips="1" connect="1" arrows="1" fold="1" page="1" pageScale="1" pageWidth="827" pageHeight="1169" math="0" shadow="0">
      <root>
        <mxCell id="0" />
        <mxCell id="1" parent="0" />
        <mxCell id="Nv24hp5_1OI4DXnrtpjT-2" value="" style="rounded=0;whiteSpace=wrap;html=1;sketch=1;hachureGap=4;jiggle=2;curveFitting=1;fontFamily=Comic Sans MS;" vertex="1" parent="1">
          <mxGeometry width="260" height="180" as="geometry" />
        </mxCell>
        <mxCell id="Nv24hp5_1OI4DXnrtpjT-3" value="&lt;font face=&quot;Comic Sans MS&quot;&gt;Дробовик&lt;/font&gt;" style="rounded=0;whiteSpace=wrap;html=1;sketch=1;hachureGap=4;jiggle=2;curveFitting=1;fontFamily=Architects Daughter;fontSource=https%3A%2F%2Ffonts.googleapis.com%2Fcss%3Ffamily%3DArchitects%2BDaughter;align=left;" vertex="1" parent="1">
          <mxGeometry width="260" height="20" as="geometry" />
        </mxCell>
        <mxCell id="Nv24hp5_1OI4DXnrtpjT-25" value="" style="shape=table;startSize=0;container=1;collapsible=0;childLayout=tableLayout;fontSize=12;rounded=0;sketch=1;hachureGap=4;jiggle=2;curveFitting=1;strokeColor=default;align=center;verticalAlign=middle;fontFamily=Comic Sans MS;fontColor=default;fillColor=default;" vertex="1" parent="1">
          <mxGeometry y="30" width="260" height="40" as="geometry" />
        </mxCell>
        <mxCell id="Nv24hp5_1OI4DXnrtpjT-26" value="" style="shape=tableRow;horizontal=0;startSize=0;swimlaneHead=0;swimlaneBody=0;strokeColor=inherit;top=0;left=0;bottom=0;right=0;collapsible=0;dropTarget=0;fillColor=none;points=[[0,0.5],[1,0.5]];portConstraint=eastwest;fontSize=16;rounded=0;sketch=1;hachureGap=4;jiggle=2;curveFitting=1;align=center;verticalAlign=middle;fontFamily=Comic Sans MS;fontColor=default;" vertex="1" parent="Nv24hp5_1OI4DXnrtpjT-25">
          <mxGeometry width="260" height="20" as="geometry" />
        </mxCell>
        <mxCell id="Nv24hp5_1OI4DXnrtpjT-27" value="0-10&lt;span style=&quot;white-space: pre; font-size: 12px;&quot;&gt;&#x9;&lt;/span&gt;" style="shape=partialRectangle;html=1;whiteSpace=wrap;connectable=0;strokeColor=inherit;overflow=hidden;fillColor=none;top=0;left=0;bottom=0;right=0;pointerEvents=1;fontSize=12;rounded=0;sketch=1;hachureGap=4;jiggle=2;curveFitting=1;align=center;verticalAlign=middle;fontFamily=Comic Sans MS;fontColor=default;" vertex="1" parent="Nv24hp5_1OI4DXnrtpjT-26">
          <mxGeometry width="87" height="20" as="geometry">
            <mxRectangle width="87" height="20" as="alternateBounds" />
          </mxGeometry>
        </mxCell>
        <mxCell id="Nv24hp5_1OI4DXnrtpjT-28" value="10-30&lt;span style=&quot;white-space: pre;&quot;&gt;&#x9;&lt;/span&gt;" style="shape=partialRectangle;html=1;whiteSpace=wrap;connectable=0;strokeColor=inherit;overflow=hidden;fillColor=none;top=0;left=0;bottom=0;right=0;pointerEvents=1;fontSize=12;rounded=0;sketch=1;hachureGap=4;jiggle=2;curveFitting=1;align=center;verticalAlign=middle;fontFamily=Comic Sans MS;fontColor=default;" vertex="1" parent="Nv24hp5_1OI4DXnrtpjT-26">
          <mxGeometry x="87" width="86" height="20" as="geometry">
            <mxRectangle width="86" height="20" as="alternateBounds" />
          </mxGeometry>
        </mxCell>
        <mxCell id="Nv24hp5_1OI4DXnrtpjT-29" value="30-60" style="shape=partialRectangle;html=1;whiteSpace=wrap;connectable=0;strokeColor=inherit;overflow=hidden;fillColor=none;top=0;left=0;bottom=0;right=0;pointerEvents=1;fontSize=12;rounded=0;sketch=1;hachureGap=4;jiggle=2;curveFitting=1;align=center;verticalAlign=middle;fontFamily=Comic Sans MS;fontColor=default;" vertex="1" parent="Nv24hp5_1OI4DXnrtpjT-26">
          <mxGeometry x="173" width="87" height="20" as="geometry">
            <mxRectangle width="87" height="20" as="alternateBounds" />
          </mxGeometry>
        </mxCell>
        <mxCell id="Nv24hp5_1OI4DXnrtpjT-30" value="" style="shape=tableRow;horizontal=0;startSize=0;swimlaneHead=0;swimlaneBody=0;strokeColor=inherit;top=0;left=0;bottom=0;right=0;collapsible=0;dropTarget=0;fillColor=none;points=[[0,0.5],[1,0.5]];portConstraint=eastwest;fontSize=16;rounded=0;sketch=1;hachureGap=4;jiggle=2;curveFitting=1;align=center;verticalAlign=middle;fontFamily=Comic Sans MS;fontColor=default;" vertex="1" parent="Nv24hp5_1OI4DXnrtpjT-25">
          <mxGeometry y="20" width="260" height="20" as="geometry" />
        </mxCell>
        <mxCell id="Nv24hp5_1OI4DXnrtpjT-31" value="" style="shape=partialRectangle;html=1;whiteSpace=wrap;connectable=0;strokeColor=inherit;overflow=hidden;fillColor=none;top=0;left=0;bottom=0;right=0;pointerEvents=1;fontSize=12;rounded=0;sketch=1;hachureGap=4;jiggle=2;curveFitting=1;align=center;verticalAlign=middle;fontFamily=Comic Sans MS;fontColor=default;" vertex="1" parent="Nv24hp5_1OI4DXnrtpjT-30">
          <mxGeometry width="87" height="20" as="geometry">
            <mxRectangle width="87" height="20" as="alternateBounds" />
          </mxGeometry>
        </mxCell>
        <mxCell id="Nv24hp5_1OI4DXnrtpjT-32" value="" style="shape=partialRectangle;html=1;whiteSpace=wrap;connectable=0;strokeColor=inherit;overflow=hidden;fillColor=none;top=0;left=0;bottom=0;right=0;pointerEvents=1;fontSize=12;rounded=0;sketch=1;hachureGap=4;jiggle=2;curveFitting=1;align=center;verticalAlign=middle;fontFamily=Comic Sans MS;fontColor=default;" vertex="1" parent="Nv24hp5_1OI4DXnrtpjT-30">
          <mxGeometry x="87" width="86" height="20" as="geometry">
            <mxRectangle width="86" height="20" as="alternateBounds" />
          </mxGeometry>
        </mxCell>
        <mxCell id="Nv24hp5_1OI4DXnrtpjT-33" value="" style="shape=partialRectangle;html=1;whiteSpace=wrap;connectable=0;strokeColor=inherit;overflow=hidden;fillColor=none;top=0;left=0;bottom=0;right=0;pointerEvents=1;fontSize=12;rounded=0;sketch=1;hachureGap=4;jiggle=2;curveFitting=1;align=center;verticalAlign=middle;fontFamily=Comic Sans MS;fontColor=default;" vertex="1" parent="Nv24hp5_1OI4DXnrtpjT-30">
          <mxGeometry x="173" width="87" height="20" as="geometry">
            <mxRectangle width="87" height="20" as="alternateBounds" />
          </mxGeometry>
        </mxCell>
        <mxCell id="Nv24hp5_1OI4DXnrtpjT-54" value="&lt;ul&gt;&lt;li&gt;Подавляющее&lt;/li&gt;&lt;li&gt;Точное&lt;/li&gt;&lt;li&gt;Аккуратное&lt;/li&gt;&lt;li&gt;Силовое&lt;/li&gt;&lt;/ul&gt;" style="text;strokeColor=none;fillColor=none;html=1;whiteSpace=wrap;verticalAlign=top;overflow=hidden;fontFamily=Comic Sans MS;fontSize=12;fontColor=default;spacing=0;spacingLeft=-20;spacingBottom=0;spacingTop=-10;imageAspect=1;" vertex="1" parent="1">
          <mxGeometry y="70" width="110" height="110" as="geometry" />
        </mxCell>
        <mxCell id="Nv24hp5_1OI4DXnrtpjT-57" value="Text" style="text;html=1;align=left;verticalAlign=top;whiteSpace=wrap;rounded=0;fontFamily=Comic Sans MS;fontSize=12;fontColor=default;" vertex="1" parent="1">
          <mxGeometry x="130" y="70" width="130" height="110" as="geometry" />
        </mxCell>
      </root>
    </mxGraphModel>
  </diagram>
</mxfile>
